<?xml version="1.0" encoding="UTF-8"?>
<svg width="120" height="120" viewBox="0 0 120 120" fill="none" xmlns="http://www.w3.org/2000/svg">
  <!-- Outer circle with gradient border -->
  <circle cx="60" cy="60" r="58" fill="#F5F2E9" stroke="url(#goldGradient)" stroke-width="4" />
  
  <!-- Inner circle with dashed burgundy border -->
  <circle cx="60" cy="60" r="50" fill="#F5F2E9" stroke="#7D2B35" stroke-width="2" stroke-dasharray="4 4" />
  
  <!-- Musical notes -->
  <g fill="#7D2B35">
    <!-- Center note -->
    <path d="M60 50 Q64 40 68 50 V70 Q68 76 60 76 Q52 76 52 70 V50 Z" />
    <rect x="52" y="70" width="16" height="4" rx="2" />
    
    <!-- Top left note -->
    <path d="M35 30 Q38 25 41 30 V40 Q41 44 35 44 Q29 44 29 40 V30 Z" />
    <rect x="29" y="40" width="12" height="3" rx="1.5" />
    
    <!-- Top right note -->
    <path d="M85 30 Q88 25 91 30 V40 Q91 44 85 44 Q79 44 79 40 V30 Z" />
    <rect x="79" y="40" width="12" height="3" rx="1.5" />
    
    <!-- Bottom left note -->
    <path d="M35 75 Q38 70 41 75 V85 Q41 89 35 89 Q29 89 29 85 V75 Z" />
    <rect x="29" y="85" width="12" height="3" rx="1.5" />
    
    <!-- Bottom right note -->
    <path d="M85 75 Q88 70 91 75 V85 Q91 89 85 89 Q79 89 79 85 V75 Z" />
    <rect x="79" y="85" width="12" height="3" rx="1.5" />
  </g>
  
  <!-- Gradients -->
  <defs>
    <linearGradient id="goldGradient" x1="60" y1="0" x2="60" y2="120" gradientUnits="userSpaceOnUse">
      <stop offset="0" stop-color="#D4AF37" />
      <stop offset="1" stop-color="#C5A028" />
    </linearGradient>
  </defs>
</svg>